PathFileType	4	(X/Y/Z)	/Users/itak/Documents/Research/Walk-IL/dataset/trc/00053_00006.trc
DataRate	CameraRate	NumFrames	NumMarkers	Units	OrigDataRate	OrigDataStartFrame	OrigNumFrames
100.000000	100.000000	4	53	mm	100.000000	131	525
Frame#	Time	RPSI			LPSI			L3			STRN			T10			C7			CLAV			RBAK			LBAK			LSHO			LUPA			LAEL			LAOL			LWTS			LWPS			LFRA			LHPS			RSHO			RUPA			RAEL			RAOL			RWTS			RWPS			RFRA			RIFD			RHTS			RHPS			RBHD			LFHD			RFHD			LBHD			LHIP			RHIP			RASI			LASI			LKNE			LTHI			LANK			LTIP			LTOE			LMT1			LMT5			LHEE			RKNE			RTHI			RANK			RTIP			RTOE			RMT1			RMT5			RHEE			LHTS			LIFD			
		X1	Y1	Z1	X2	Y2	Z2	X3	Y3	Z3	X4	Y4	Z4	X5	Y5	Z5	X6	Y6	Z6	X7	Y7	Z7	X8	Y8	Z8	X9	Y9	Z9	X10	Y10	Z10	X11	Y11	Z11	X12	Y12	Z12	X13	Y13	Z13	X14	Y14	Z14	X15	Y15	Z15	X16	Y16	Z16	X17	Y17	Z17	X18	Y18	Z18	X19	Y19	Z19	X20	Y20	Z20	X21	Y21	Z21	X22	Y22	Z22	X23	Y23	Z23	X24	Y24	Z24	X25	Y25	Z25	X26	Y26	Z26	X27	Y27	Z27	X28	Y28	Z28	X29	Y29	Z29	X30	Y30	Z30	X31	Y31	Z31	X32	Y32	Z32	X33	Y33	Z33	X34	Y34	Z34	X35	Y35	Z35	X36	Y36	Z36	X37	Y37	Z37	X38	Y38	Z38	X39	Y39	Z39	X40	Y40	Z40	X41	Y41	Z41	X42	Y42	Z42	X43	Y43	Z43	X44	Y44	Z44	X45	Y45	Z45	X46	Y46	Z46	X47	Y47	Z47	X48	Y48	Z48	X49	Y49	Z49	X50	Y50	Z50	X51	Y51	Z51	X52	Y52	Z52	X53	Y53	Z53	

132	1.31	920.1392822265625	1023.96044921875	-192.5033264160156	916.4241943359375	1014.703918457031	-367.3877868652344	922.814453125	1073.508422851562	-287.567626953125	1167.931762695312	1274.075561523438	-281.8100280761719	901.6448364257812	1207.92138671875	-293.8275146484375	956.9829711914062	1475.931274414062	-297.0320129394531	1137.10986328125	1388.05859375	-285.7532958984375	890.1760864257812	1337.174926757812	-224.055908203125	941.5654296875	1437.530029296875	-398.9738464355469	1048.892333984375	1442.396118164062	-465.4254150390625	1038.92138671875	1314.683227539062	-543.4886474609375	1067.408813476562	1100.307983398438	-560.3338012695312	1000.320617675781	1083.728271484375	-479.4580078125	1159.949340820312	862.6800537109375	-493.38232421875	1106.103271484375	851.0875244140625	-557.0485229492188	1091.149047851562	992.032958984375	-566.9993896484375	1140.419555664062	770.2260131835938	-550.7101440429688	1012.351623535156	1440.283447265625	-117.8683471679688	998.4215698242188	1371.34912109375	-54.91228866577148	969.9299926757812	1106.462646484375	-26.74194717407227	996.21923828125	1084.11328125	-120.3897552490234	1121.435302734375	859.4414672851562	-53.04622650146484	1049.2705078125	841.904541015625	-7.890434265136719	984.4551391601562	1026.316040039062	-17.83123779296875	1128.654541015625	673.6189575195312	-77.92641448974609	1148.731567382812	757.569091796875	-52.17954635620117	1088.6337890625	752.7172241210938	-3.656435251235962	1009.5341796875	1662.881103515625	-357.01708984375	1168.08740234375	1680.567504882812	-210.3860015869141	1185.038208007812	1687.426635742188	-334.1356506347656	999.0693359375	1647.6787109375	-220.7831878662109	1015.923828125	953.34130859375	-460.5023498535156	994.283447265625	952.7034912109375	-114.1239852905273	1117.3740234375	968.4400024414062	-135.4615173339844	1132.034790039062	960.3805541992188	-402.5235595703125	1088.497924804688	488.5089416503906	-409.2291259765625	1058.71337890625	627.9115600585938	-445.8782653808594	948.6895141601562	40.08979797363281	-433.5070495605469	1013.536987304688	250.9439697265625	-435.1213684082031	1155.222534179688	30.60183715820312	-434.3667297363281	1107.396362304688	31.36569786071777	-378.3501281738281	1049.898803710938	29.202880859375	-475.1041259765625	899.6529541015625	37.26789093017578	-357.4501037597656	1068.75390625	506.5503845214844	-138.4853973388672	1077.894775390625	778.0963134765625	-104.7032470703125	959.8158569335938	36.13770294189453	-145.2615203857422	1041.92236328125	385.1092224121094	-135.2711944580078	1176.877075195312	28.32938194274902	-179.6357879638672	1115.780151367188	33.29206848144531	-220.5254364013672	1085.076416015625	38.09276580810547	-128.851318359375	912.4635009765625	37.91213226318359	-201.9390258789062	1184.172119140625	780.6728515625	-495.3162231445312	1174.704833984375	677.3411865234375	-467.3525390625	
133	1.32	919.4525756835938	1024.064697265625	-192.1158599853516	916.0411376953125	1014.761596679688	-366.9619140625	922.0899047851562	1073.535888671875	-287.2831420898438	1167.601440429688	1274.095703125	-281.1376647949219	901.3506469726562	1208.0556640625	-293.4916076660156	956.708740234375	1476.012939453125	-296.5846862792969	1136.790161132812	1388.099243164062	-285.1376953125	889.7081909179688	1337.409301757812	-223.6535797119141	941.370849609375	1437.606201171875	-398.5557556152344	1048.747436523438	1442.397583007812	-464.8634338378906	1038.895141601562	1314.695068359375	-542.943115234375	1067.385375976562	1100.329711914062	-559.8040771484375	1000.343933105469	1083.740234375	-479.0197143554688	1159.915161132812	862.684326171875	-492.8004760742188	1106.145751953125	851.1734008789062	-556.5437622070312	1091.136596679688	992.0721435546875	-566.4849853515625	1140.468994140625	770.2811889648438	-550.2161254882812	1011.9033203125	1440.369384765625	-117.3587799072266	997.8926391601562	1371.45458984375	-54.42904281616211	969.3159790039062	1106.623779296875	-26.03705215454102	995.7745361328125	1084.188720703125	-119.6627960205078	1121.065185546875	859.6948852539062	-52.23249435424805	1048.9541015625	842.0989990234375	-7.064642429351807	983.8972778320312	1026.45556640625	-17.06631469726562	1128.525146484375	673.8970336914062	-77.11254119873047	1148.452026367188	757.8555908203125	-51.38821029663086	1088.34375	752.9164428710938	-2.882624864578247	1009.402587890625	1662.922241210938	-356.4829406738281	1168.006591796875	1680.598022460938	-209.8637084960938	1184.932495117188	1687.41357421875	-333.5769958496094	998.9375	1647.750854492188	-220.3076324462891	1015.283813476562	953.36865234375	-460.0354309082031	993.5748901367188	952.7593383789062	-113.6777877807617	1116.670166015625	968.5971069335938	-134.8759460449219	1131.630249023438	960.4237670898438	-401.9066467285156	1088.607788085938	488.6398010253906	-408.9141845703125	1058.749755859375	628.010498046875	-445.5198974609375	948.7412719726562	40.08354568481445	-433.5274353027344	1013.645629882812	250.9649963378906	-434.9880981445312	1155.249633789062	30.55481338500977	-434.3734436035156	1107.484619140625	31.41867446899414	-378.3953552246094	1049.975219726562	29.10665702819824	-475.1340026855469	899.6909790039062	37.36769485473633	-357.4824829101562	1068.789672851562	506.5576477050781	-138.0247192382812	1077.327758789062	778.0621948242188	-104.1362838745117	959.8101196289062	36.16420745849609	-145.2916259765625	1041.965576171875	385.0735473632812	-135.0598449707031	1176.878173828125	28.32275581359863	-179.6632080078125	1115.78466796875	33.28807830810547	-220.5372772216797	1085.085571289062	38.10075378417969	-128.8705596923828	912.4876708984375	37.94973754882812	-201.9727783203125	1184.225219726562	780.74951171875	-494.7832336425781	1174.763427734375	677.4208984375	-466.8279113769531	
134	1.33	918.7296752929688	1024.151611328125	-191.6988525390625	915.601318359375	1014.810363769531	-366.5372314453125	921.511962890625	1073.594482421875	-286.9289855957031	1167.236938476562	1274.081665039062	-280.4126586914062	901.0291748046875	1208.221801757812	-293.1048889160156	956.4415283203125	1476.107666015625	-296.1018981933594	1136.460327148438	1388.1328125	-284.5010375976562	889.2513427734375	1337.65625	-223.1981353759766	941.161376953125	1437.681640625	-398.0955810546875	1048.584106445312	1442.390869140625	-464.2704772949219	1038.834594726562	1314.702514648438	-542.35888671875	1067.317749023438	1100.33056640625	-559.2288818359375	1000.304443359375	1083.742309570312	-478.5316162109375	1159.843017578125	862.6934204101562	-492.1705017089844	1106.141967773438	851.2347412109375	-555.9762573242188	1091.083618164062	992.1082763671875	-565.921630859375	1140.466918945312	770.3341674804688	-549.67041015625	1011.462646484375	1440.461669921875	-116.8219833374023	997.3718872070312	1371.572143554688	-53.91310501098633	968.7207641601562	1106.792846679688	-25.27472114562988	995.243896484375	1084.273071289062	-118.8982086181641	1120.6728515625	859.9354248046875	-51.38864898681641	1048.625	842.2968139648438	-6.185799121856689	983.34814453125	1026.6103515625	-16.24994087219238	1128.329833984375	674.1647338867188	-76.24687957763672	1148.132202148438	758.12548828125	-50.56511306762695	1088.041137695312	753.1166381835938	-2.049243211746216	1009.282409667969	1662.965576171875	-355.9205932617188	1167.975952148438	1680.66015625	-209.3497619628906	1184.839233398438	1687.386352539062	-332.9959716796875	998.779541015625	1647.807250976562	-219.8058776855469	1014.4794921875	953.4056396484375	-459.5492553710938	992.7188720703125	952.8119506835938	-113.2164154052734	1115.899291992188	968.7637939453125	-134.25439453125	1131.1796875	960.4480590820312	-401.2208251953125	1088.781494140625	488.7977905273438	-408.5528259277344	1058.84619140625	628.10498046875	-445.1285095214844	948.8057250976562	40.08020401000977	-433.552734375	1013.798156738281	250.9807739257812	-434.8490905761719	1155.273803710938	30.50137138366699	-434.3861389160156	1107.588256835938	31.4885368347168	-378.4508972167969	1050.058715820312	29.0014533996582	-475.164306640625	899.7238159179688	37.47572326660156	-357.5186767578125	1068.832641601562	506.5826416015625	-137.5636291503906	1076.7392578125	778.0347290039062	-103.5676574707031	959.8010864257812	36.19446563720703	-145.3331604003906	1042.0361328125	385.0331726074219	-134.8596649169922	1176.88232421875	28.31363868713379	-179.6897277832031	1115.791137695312	33.28360366821289	-220.5502319335938	1085.09814453125	38.1116943359375	-128.8954620361328	912.5155639648438	37.99001693725586	-202.0170440673828	1184.244873046875	780.8515625	-494.2015686035156	1174.787841796875	677.5269165039062	-466.2546691894531	
135	1.34	917.9816284179688	1024.219482421875	-191.2488250732422	915.0882568359375	1014.84814453125	-366.1112365722656	921.0803833007812	1073.6865234375	-286.5004272460938	1166.842529296875	1274.038940429688	-279.6423950195312	900.6710205078125	1208.422241210938	-292.6594848632812	956.182373046875	1476.215209960938	-295.5791015625	1136.12353515625	1388.158081054688	-283.8387451171875	888.799560546875	1337.912231445312	-222.6846008300781	940.9390869140625	1437.75634765625	-397.5880126953125	1048.40869140625	1442.38671875	-463.6465759277344	1038.736083984375	1314.710571289062	-541.7368774414062	1067.199462890625	1100.3212890625	-558.6103515625	1000.197021484375	1083.7392578125	-477.9889221191406	1159.73193359375	862.7147827148438	-491.4968872070312	1106.083129882812	851.27392578125	-555.3486328125	1090.989135742188	992.1448364257812	-565.3106079101562	1140.414672851562	770.3916625976562	-549.065185546875	1011.032043457031	1440.561157226562	-116.2557067871094	996.8593139648438	1371.702026367188	-53.36248779296875	968.1541137695312	1106.971313476562	-24.44595336914062	994.5941772460938	1084.373168945312	-118.0843200683594	1120.259765625	860.1634521484375	-50.51775360107422	1048.276733398438	842.4957885742188	-5.257547855377197	982.8147583007812	1026.780517578125	-15.37333583831787	1128.063232421875	674.4180297851562	-75.33446502685547	1147.770874023438	758.377197265625	-49.71384811401367	1087.73583984375	753.3217163085938	-1.149762392044067	1009.180725097656	1663.008422851562	-355.3338623046875	1167.984130859375	1680.747436523438	-208.8320465087891	1184.759521484375	1687.346923828125	-332.3913269042969	998.604248046875	1647.848022460938	-219.2702789306641	1013.642456054688	953.4415893554688	-459.0316162109375	991.7062377929688	952.8617553710938	-112.7362442016602	1115.049560546875	968.9301147460938	-133.5904235839844	1130.683349609375	960.4641723632812	-400.4744262695312	1089.01806640625	488.9686584472656	-408.1393127441406	1059.002197265625	628.187744140625	-444.697509765625	948.8809204101562	40.08078002929688	-433.5818176269531	1013.999755859375	250.9914245605469	-434.7017822265625	1155.295776367188	30.44505882263184	-434.4040222167969	1107.708618164062	31.57676315307617	-378.5158996582031	1050.147705078125	28.89232635498047	-475.1934204101562	899.7474975585938	37.58748626708984	-357.5575256347656	1068.88427734375	506.631591796875	-137.1314697265625	1076.0966796875	778.0015869140625	-103.00244140625	959.7896728515625	36.22667694091797	-145.3861999511719	1042.13818359375	384.9807739257812	-134.6709747314453	1176.890258789062	28.30296325683594	-179.7157440185547	1115.79931640625	33.27842712402344	-220.5628814697266	1085.113403320312	38.12588882446289	-128.9256286621094	912.5464477539062	38.03209686279297	-202.0720672607422	1184.224243164062	780.9761962890625	-493.5714111328125	1174.772705078125	677.657470703125	-465.6327514648438	
